<?xml version="1.0" encoding="UTF-8"?>
<svg xmlns="http://www.w3.org/2000/svg" viewBox="0 0 200 200" width="100%" height="100%">
  <defs>
    <linearGradient id="rtmsApertureGrad" x1="0%" y1="0%" x2="100%" y2="100%">
      <stop offset="0%" stop-color="#38bdf8" />
      <stop offset="45%" stop-color="#22d3ee" />
      <stop offset="85%" stop-color="#14b8a6" />
      <stop offset="100%" stop-color="#0d9488" />
    </linearGradient>
  </defs>
  <g id="aperture-group">
    <path d="M 158.22 51.15 A 76.00 76.00 0 0 1 171.41 126.00 L 115.01 126.00 Z" fill="url(#rtmsApertureGrad)" stroke="#0b0f19" stroke-width="3" stroke-linejoin="round" />
    <path d="M 171.41 126.00 A 76.00 76.00 0 0 1 113.19 174.85 L 84.99 126.00 Z" fill="url(#rtmsApertureGrad)" stroke="#0b0f19" stroke-width="3" stroke-linejoin="round" />
    <path d="M 113.19 174.85 A 76.00 76.00 0 0 1 41.78 148.85 L 69.98 100.00 Z" fill="url(#rtmsApertureGrad)" stroke="#0b0f19" stroke-width="3" stroke-linejoin="round" />
    <path d="M 41.78 148.85 A 76.00 76.00 0 0 1 28.59 74.00 L 84.99 74.00 Z" fill="url(#rtmsApertureGrad)" stroke="#0b0f19" stroke-width="3" stroke-linejoin="round" />
    <path d="M 28.59 74.00 A 76.00 76.00 0 0 1 86.81 25.15 L 115.01 74.00 Z" fill="url(#rtmsApertureGrad)" stroke="#0b0f19" stroke-width="3" stroke-linejoin="round" />
    <path d="M 86.81 25.15 A 76.00 76.00 0 0 1 158.22 51.15 L 130.02 100.00 Z" fill="url(#rtmsApertureGrad)" stroke="#0b0f19" stroke-width="3" stroke-linejoin="round" />
  </g>
</svg>